<?xml version="1.0" standalone="no"?>
<!DOCTYPE svg PUBLIC "-//W3C//DTD SVG 20010904//EN"
 "http://www.w3.org/TR/2001/REC-SVG-20010904/DTD/svg10.dtd">
<svg version="1.0" xmlns="http://www.w3.org/2000/svg"
 width="500.000000pt" height="113.000000pt" viewBox="0 0 500.000000 113.000000"
 preserveAspectRatio="xMidYMid meet">

<g transform="translate(0.000000,113.000000) scale(0.100000,-0.100000)"
fill="#000000" stroke="none">
<path d="M1040 1107 c-14 -6 -34 -20 -44 -29 -10 -10 -23 -15 -28 -12 -4 3 -8
0 -8 -6 0 -6 -4 -9 -9 -6 -5 3 -12 -1 -15 -10 -3 -8 -10 -12 -16 -9 -5 3 -10
1 -10 -5 0 -6 -4 -8 -10 -5 -5 3 -10 1 -10 -4 0 -6 -7 -11 -15 -11 -8 0 -15
-5 -15 -12 0 -6 -3 -9 -6 -5 -6 6 -108 -46 -135 -69 -8 -8 -18 -14 -20 -14 -3
0 -59 -31 -125 -69 -65 -37 -209 -120 -320 -184 -248 -142 -242 -138 -249
-156 -12 -30 24 -57 136 -103 63 -27 118 -48 123 -48 4 0 19 14 33 30 13 17
29 28 33 25 5 -3 21 10 37 30 15 19 33 35 39 35 6 0 25 18 43 40 17 22 38 40
45 40 7 0 27 15 44 33 17 17 51 49 74 70 67 58 139 124 187 170 24 23 40 35
36 27 -4 -8 11 5 35 30 25 26 44 40 47 33 2 -7 11 -9 19 -6 21 8 17 -23 -7
-57 -14 -18 -28 -26 -38 -23 -12 4 -13 3 -3 -5 11 -7 8 -14 -14 -31 -14 -11
-31 -21 -36 -21 -5 0 -6 -10 -3 -22 6 -16 4 -20 -9 -15 -8 3 -18 2 -21 -3 -4
-6 -1 -10 5 -10 6 0 -8 -23 -30 -51 -22 -28 -40 -55 -40 -60 0 -6 -6 -7 -12
-3 -10 6 -10 5 -1 -8 11 -12 9 -18 -6 -32 -10 -10 -27 -16 -37 -14 -13 2 -17
-4 -19 -29 -1 -31 -23 -69 -33 -58 -3 2 1 11 7 19 9 11 9 16 -1 22 -7 4 -10 4
-6 -1 4 -4 -2 -21 -14 -38 -12 -17 -17 -27 -10 -23 7 4 12 2 12 -6 0 -7 18 7
40 32 38 43 51 68 30 55 -5 -3 -10 -1 -10 4 0 6 8 11 18 11 10 0 45 33 80 75
34 41 55 72 47 69 -8 -4 -15 -9 -15 -13 -1 -12 -41 -54 -46 -48 -11 10 68 97
87 97 11 0 19 5 19 11 0 5 -6 7 -12 3 -10 -6 -10 -4 0 8 10 13 10 17 0 21 -7
3 -3 4 9 4 17 -1 19 -4 11 -14 -7 -9 -7 -13 1 -13 6 0 11 4 11 9 0 5 18 27 40
50 22 22 40 44 40 47 0 3 8 13 18 22 9 10 13 14 8 10 -21 -16 -28 -7 -11 12
10 11 20 18 23 15 7 -7 32 15 32 27 0 6 -8 4 -17 -3 -10 -8 -4 3 12 23 17 20
36 37 43 37 13 1 14 6 17 84 2 51 -7 57 -55 34z m-102 -287 c-19 -27 -48 -47
-48 -34 0 3 12 20 27 39 33 41 52 36 21 -5z m-187 -223 c-10 -9 -11 -8 -5 6 3
10 9 15 12 12 3 -3 0 -11 -7 -18z"/>
<path d="M1060 965 c-7 -9 -11 -17 -9 -20 3 -2 10 5 17 15 14 24 10 26 -8 5z"/>
<path d="M3640 580 l0 -320 75 0 75 0 0 320 0 320 -75 0 -75 0 0 -320z"/>
<path d="M1640 873 c-109 -19 -191 -77 -238 -168 -23 -43 -27 -62 -27 -140 0
-75 4 -98 24 -139 31 -63 84 -116 147 -147 69 -34 196 -34 272 0 184 83 234
337 98 498 -52 62 -194 111 -276 96z m130 -156 c52 -34 74 -80 74 -151 0 -65
-11 -95 -52 -139 -70 -75 -209 -50 -252 46 -42 91 -13 209 60 248 50 27 128
25 170 -4z"/>
<path d="M2708 803 c-3 -56 -4 -58 -33 -61 l-30 -3 3 -59 c4 -55 5 -59 30 -62
l27 -3 5 -135 c3 -84 10 -144 18 -158 25 -43 70 -62 150 -62 l72 0 0 60 0 60
-40 0 c-53 0 -60 16 -60 139 l0 101 50 0 50 0 0 60 0 60 -50 0 -50 0 0 60 0
60 -70 0 -69 0 -3 -57z"/>
<path d="M3277 735 c-22 -7 -50 -23 -63 -36 l-24 -22 0 31 0 32 -75 0 -75 0 2
-357 3 -358 73 -3 72 -3 0 152 0 153 28 -26 c76 -73 207 -61 279 26 39 48 53
96 53 182 0 117 -54 201 -149 233 -44 14 -77 13 -124 -4z m71 -129 c63 -33 76
-144 23 -197 -24 -23 -38 -29 -73 -29 -36 0 -50 6 -74 31 -25 27 -29 38 -29
90 0 56 3 63 33 90 36 32 77 37 120 15z"/>
<path d="M4025 738 c-93 -33 -145 -117 -145 -238 0 -149 84 -250 209 -250 51
0 89 15 124 48 l27 26 0 -32 0 -32 75 0 75 0 0 240 0 240 -75 0 -75 0 0 -31 0
-31 -30 26 c-51 42 -123 55 -185 34z m177 -147 c31 -27 33 -34 33 -91 0 -57
-2 -64 -33 -91 -42 -38 -102 -40 -137 -5 -29 30 -46 88 -35 124 15 51 22 63
49 77 43 23 87 19 123 -14z"/>
<path d="M2082 563 c3 -167 4 -181 28 -221 29 -52 72 -80 134 -88 49 -7 124
14 146 42 18 21 30 17 30 -11 0 -24 2 -25 75 -25 l75 0 0 240 0 240 -75 0 -75
0 0 -145 c0 -108 -4 -153 -15 -174 -27 -54 -111 -65 -151 -19 -17 17 -19 41
-22 179 l-3 159 -76 0 -75 0 4 -177z"/>
<path d="M4459 718 c5 -13 48 -115 96 -228 48 -113 88 -209 88 -215 0 -5 -23
-62 -51 -126 -29 -65 -52 -120 -52 -123 0 -4 35 -6 77 -4 l77 3 79 185 c43
102 112 263 152 358 l73 173 -81 -3 -81 -3 -50 -142 c-28 -79 -54 -143 -57
-143 -4 0 -31 65 -60 145 l-54 145 -82 0 c-81 0 -82 0 -74 -22z"/>
<path d="M693 575 c0 -8 4 -12 9 -9 5 3 6 10 3 15 -9 13 -12 11 -12 -6z"/>
<path d="M552 396 c-17 -19 -34 -32 -38 -28 -4 4 -4 1 1 -7 7 -11 11 -11 22 5
8 10 20 18 28 16 7 -1 16 2 20 8 4 6 -1 7 -12 3 -17 -6 -17 -5 1 15 11 12 17
22 14 22 -3 0 -19 -15 -36 -34z"/>
<path d="M497 343 c-4 -3 -7 -13 -7 -22 0 -8 -17 -33 -37 -55 -21 -23 -26 -30
-10 -17 17 16 27 20 27 11 0 -17 11 -7 14 13 1 9 12 24 25 34 20 16 21 21 9
31 -8 6 -18 9 -21 5z m18 -12 c3 -5 2 -12 -3 -15 -5 -3 -9 1 -9 9 0 17 3 19
12 6z"/>
</g>
</svg>
